/* XPM */
static char *a1db5221655548229d058b0789b91943Q30VQYULJcIUN0HP[] = {
/* columns rows colors chars-per-pixel */
"32 32 69 1 ",
"  c black",
". c #191919",
"X c #003B22",
"o c #222222",
"O c gray20",
"+ c #660000",
"@ c #770808",
"# c #7F2A11",
"$ c #7F3B19",
"% c #004428",
"& c #004C2A",
"* c #005C30",
"= c #7C6611",
"- c #7C4C20",
"; c #282A6C",
": c #333B74",
"> c #007744",
", c #4C4C4C",
"< c gray36",
"1 c #606060",
"2 c #606460",
"3 c gray40",
"4 c gray43",
"5 c gray44",
"6 c #707470",
"7 c #777777",
"8 c #7C7E7C",
"9 c #880000",
"0 c #990000",
"q c #AA0000",
"w c #B00000",
"e c #B80000",
"r c #CC0000",
"t c #E01010",
"y c #E81010",
"u c #EE1010",
"i c #804000",
"p c #884400",
"a c #FF5522",
"s c #FF7733",
"d c #008050",
"f c #008850",
"g c #009955",
"h c #00B060",
"j c #00B860",
"k c #E0E000",
"l c #E8EC00",
"z c #FFEE00",
"x c #F8CC22",
"c c #F09040",
"v c #F89840",
"b c #4444CC",
"n c #5050D0",
"m c #5054D8",
"M c #6677E8",
"N c #7090E0",
"B c #7098E8",
"V c #808080",
"C c #888888",
"Z c #909090",
"A c #989898",
"S c #AAAAAA",
"D c gray69",
"F c gray72",
"G c gray80",
"H c #DDDDDD",
"J c #EEEEEE",
"K c gray94",
"L c #F8FCF8",
/* pixels */
"ffffffffffffffffffffffffffffffff",
"ffffffffffffffffffffffffffffffff",
"ffffffBBBBBBffffffffffllllllffff",
"ffffffBBBBBBffffffffffllllllffff",
"ffffBBCCCCCCBBffffjjjjvvvvvvffff",
"ffffBBCCCCCCBBffffjjjjvvvvvvffff",
"ffBBCCAACCCCCCBBffjjffffffffffff",
"ffBBCCAACCCCCCBBffjjffffffffffff",
"ffBBCCCCCCCCCCBBffjjffyyyyyyjjff",
"ffBBCCCCCCCCCCBBffjjffyyyyyyjjff",
"ffBBCCCCCCCCCCBB22jjjjeeeeeeffff",
"ffBBCCCCCCCCCCBB22jjjjeeeeeeffff",
"ffffBBCCCCCCBB2222jjffffffffffff",
"ffffBBCCCCCCBB2222jjffffffffffff",
"ffffjjBBBBBB2222ffjjAAAAAA66jjff",
"ffffjjBBBBBB2222ffjjAAAAAA66jjff",
"ffjjjjjj22222222jjjjAACCCC22ffff",
"ffjjjjjj22222222jjjjAACCCC22ffff",
"ffjjjjffffffffffjjffAACCAA22ffff",
"ffjjjjffffffffffjjffAACCAA22ffff",
"ffjjjjffffffffjjjjffAACCCC22ffff",
"ffjjjjffffffffjjjjffAACCCC22ffff",
"ffjjLL66jjjjjjLL66ffAACCAA22ffff",
"ffjjLL66jjjjjjLL66ffAACCAA22ffff",
"ffjjFF22jjjjjjFF22ffAACCCC22ffff",
"ffjjFF22jjjjjjFF22ffAACCCC22ffff",
"ffjjjjffffffffffffff66222222ffff",
"ffjjjjffffffffffffff66222222ffff",
"ffjjjjjjjjjjjjjjjjjjjjjjffffffff",
"ffjjjjjjjjjjjjjjjjjjjjjjffffffff",
"ffffffffffffffffffffffffffffffff",
"ffffffffffffffffffffffffffffffff"
};